<?xml version="1.0" encoding="iso-8859-1"?>
<!-- Uploaded to: SVG Repo, www.svgrepo.com, Generator: SVG Repo Mixer Tools -->
<!DOCTYPE svg PUBLIC "-//W3C//DTD SVG 1.1//EN" "http://www.w3.org/Graphics/SVG/1.1/DTD/svg11.dtd">
<svg fill="#000000" version="1.1" id="Capa_1" xmlns="http://www.w3.org/2000/svg" xmlns:xlink="http://www.w3.org/1999/xlink" 
	 width="800px" height="800px" viewBox="0 0 46.266 46.267"
	 xml:space="preserve">
<g>
	<g>
		<path d="M45.178,28.1L30.391,13.312c0.008-3.302,0.018-7.285,0.018-7.399C30.409,2.648,27.762,0,24.497,0
			c-3.257,0-5.898,2.635-5.912,5.889c-3.255,0.013-5.889,2.655-5.889,5.913c0,3.265,2.647,5.912,5.911,5.912
			c0.114,0,4.099-0.009,7.401-0.018l9.079,9.079l-1.929,1.929c-0.289,0.29-0.453,0.683-0.453,1.092s0.164,0.804,0.453,1.093
			l3.285,3.284c0.289,0.29,0.682,0.452,1.092,0.452s0.804-0.163,1.092-0.452l1.929-1.928l0.237,0.237
			c1.212,1.211,3.174,1.211,4.385,0C46.389,31.273,46.389,29.311,45.178,28.1z"/>
		<path d="M13.958,24.043C10.8,20.91,5.699,20.917,2.547,24.066c-3.156,3.156-3.156,8.274,0,11.432
			c0.157,0.152,7.646,7.609,10.404,10.354c0.556,0.554,1.456,0.554,2.012,0c2.759-2.744,10.249-10.201,10.402-10.354
			c3.157-3.157,3.157-8.275,0-11.432C22.216,20.916,17.116,20.91,13.958,24.043z M15.986,34.63v2.849c0,1.115-0.905,2.02-2.021,2.02
			c-1.116,0-2.021-0.904-2.021-2.02V34.63c-0.596-0.542-0.952-1.315-0.952-2.176c0-1.64,1.327-2.969,2.968-2.969
			c1.64,0,2.973,1.329,2.973,2.969C16.932,33.314,16.582,34.088,15.986,34.63z"/>
	</g>
</g>
</svg>